<?xml version="1.0" encoding="UTF-8" standalone="no"?>
<!-- Created with Inkscape (http://www.inkscape.org/) -->

<svg
   width="210mm"
   height="297mm"
   viewBox="0 0 210 297"
   version="1.1"
   id="svg5"
   inkscape:version="1.2.2 (732a01da63, 2022-12-09)"
   sodipodi:docname="sunrayzU.svg"
   xmlns:inkscape="http://www.inkscape.org/namespaces/inkscape"
   xmlns:sodipodi="http://sodipodi.sourceforge.net/DTD/sodipodi-0.dtd"
   xmlns="http://www.w3.org/2000/svg"
   xmlns:svg="http://www.w3.org/2000/svg">
  <sodipodi:namedview
     id="namedview7"
     pagecolor="#ffffff"
     bordercolor="#000000"
     borderopacity="0.25"
     inkscape:showpageshadow="2"
     inkscape:pageopacity="0.0"
     inkscape:pagecheckerboard="0"
     inkscape:deskcolor="#d1d1d1"
     inkscape:document-units="mm"
     showgrid="true"
     inkscape:zoom="22.627417"
     inkscape:cx="337.00267"
     inkscape:cy="253.16632"
     inkscape:window-width="2560"
     inkscape:window-height="1361"
     inkscape:window-x="-9"
     inkscape:window-y="-9"
     inkscape:window-maximized="1"
     inkscape:current-layer="layer1" />
  <defs
     id="defs2">
    <rect
       x="321.89099"
       y="367.38747"
       width="90.719702"
       height="17.761387"
       id="rect292" />
    <rect
       x="274.61838"
       y="359.87303"
       width="215.04941"
       height="85.801164"
       id="rect236" />
  </defs>
  <g
     inkscape:label="Слой 1"
     inkscape:groupmode="layer"
     id="layer1">
    <path
       id="text234"
       style="font-size:12px;font-family:sans-serif;-inkscape-font-specification:sans-serif;white-space:pre;shape-inside:url(#rect236);display:inline;fill:#000000;fill-opacity:1;stroke:none;stroke-width:1.71591;stroke-miterlimit:3.5;paint-order:stroke fill markers"
       d="M 278.36222 362.31041 C 277.94622 362.31041 277.56755 362.36271 277.22355 362.46666 C 276.88755 362.56266 276.59832 362.70259 276.35832 362.88659 C 276.11832 363.07059 275.93182 363.29446 275.79582 363.55846 C 275.66782 363.82246 275.60246 364.11913 275.60246 364.44713 C 275.60246 364.91113 275.71067 365.29548 275.92667 365.59948 C 276.15067 365.89548 276.4268 366.14734 276.7548 366.35534 C 277.0828 366.56334 277.43916 366.7424 277.82316 366.8944 C 278.20716 367.0464 278.56352 367.20315 278.89152 367.36315 C 279.21952 367.52315 279.49192 367.70788 279.70792 367.91588 C 279.93192 368.12388 280.04386 368.39062 280.04386 368.71862 C 280.04386 368.95862 279.99156 369.16762 279.88761 369.34362 C 279.79161 369.51962 279.65541 369.66698 279.47941 369.78698 C 279.31141 369.89898 279.1118 369.98293 278.8798 370.03893 C 278.6478 370.08693 278.39966 370.1112 278.13566 370.1112 C 277.83166 370.1112 277.52755 370.072 277.22355 369.99205 C 276.92755 369.90405 276.65886 369.79584 276.41886 369.66784 L 276.41886 368.3358 L 275.53019 368.3358 L 275.53019 370.27916 L 275.51847 370.31432 C 275.62247 370.37032 275.76239 370.4394 275.93839 370.5194 C 276.12239 370.5994 276.32767 370.67591 276.55167 370.74791 C 276.78367 370.81991 277.03553 370.8796 277.30753 370.9276 C 277.57953 370.9756 277.86682 370.99987 278.17082 370.99987 C 278.61879 370.99987 279.01999 370.94387 279.37199 370.8319 C 279.73199 370.7199 280.03042 370.55943 280.27042 370.35143 C 280.51842 370.14343 280.70688 369.89529 280.83488 369.60729 C 280.97088 369.31929 281.03996 368.99463 281.03996 368.63463 C 281.03996 368.19463 280.92802 367.82712 280.70402 367.53112 C 280.48802 367.23512 280.21561 366.98326 279.88761 366.77526 C 279.55961 366.55926 279.20325 366.3708 278.81925 366.2108 C 278.43525 366.0508 278.07889 365.89034 277.75089 365.73034 C 277.42289 365.56234 277.14677 365.37584 276.92277 365.16784 C 276.70677 364.95984 276.59855 364.69859 276.59855 364.38659 C 276.59855 364.22659 276.63965 364.07551 276.71964 363.93151 C 276.79964 363.78751 276.91158 363.66246 277.05558 363.55846 C 277.20758 363.44646 277.38664 363.35879 277.59464 363.29479 C 277.81064 363.23079 278.05135 363.19909 278.31535 363.19909 C 278.58735 363.19909 278.84292 363.21591 279.08292 363.24791 C 279.32292 363.27991 279.54308 363.31901 279.74308 363.36705 L 279.74308 364.65026 L 280.63175 364.65026 L 280.63175 362.73034 L 280.64347 362.69518 L 280.63175 362.69518 L 280.63175 362.67174 L 280.60636 362.68346 C 280.37436 362.57146 280.06279 362.48379 279.67082 362.41979 C 279.27882 362.34779 278.84222 362.31041 278.36222 362.31041 z M 293.06339 364.7108 C 292.82339 364.7108 292.5958 364.74251 292.3798 364.80651 C 292.1638 364.87051 291.96791 364.96013 291.79191 365.07213 C 291.61591 365.17613 291.45916 365.29551 291.32316 365.43151 C 291.19516 365.55951 291.09066 365.69199 291.01066 365.82799 L 290.95207 365.82799 L 290.84269 364.85534 L 289.23527 364.85534 L 289.23527 365.63463 L 290.03996 365.63463 C 290.05596 365.72263 290.06721 365.82713 290.07511 365.94713 C 290.09111 366.06713 290.10227 366.19023 290.11027 366.31823 C 290.11827 366.43823 290.12394 366.55955 290.12394 366.67955 C 290.13194 366.79155 290.13566 366.88295 290.13566 366.95495 L 290.13566 370.85534 L 291.05949 370.85534 L 291.05949 367.08776 C 291.11549 366.88776 291.20316 366.6993 291.32316 366.5233 C 291.44316 366.3393 291.58308 366.17884 291.74308 366.04284 C 291.90308 365.90684 292.07845 365.79862 292.27042 365.71862 C 292.47042 365.63062 292.67571 365.58776 292.88371 365.58776 C 293.45171 365.58776 293.84349 365.75566 294.05949 366.09166 C 294.27549 366.42766 294.38371 366.92766 294.38371 367.59166 L 294.38371 370.85534 L 295.31925 370.85534 L 295.31925 367.41198 C 295.31925 366.87598 295.27075 366.43566 295.17472 366.09166 C 295.07872 365.73966 294.93508 365.46354 294.74308 365.26354 C 294.55908 365.05554 294.32405 364.9119 294.03605 364.8319 C 293.75605 364.7519 293.43139 364.7108 293.06339 364.7108 z M 301.62003 364.73424 C 301.15603 364.73424 300.75486 364.82384 300.41886 364.99987 C 300.08286 365.17587 299.77875 365.38663 299.50675 365.63463 L 299.44621 365.63463 L 299.2548 364.85534 L 297.01066 364.85534 L 297.01066 365.66002 L 298.63175 365.66002 L 298.63175 370.05065 L 297.01066 370.05065 L 297.01066 370.85534 L 301.85832 370.85534 L 301.85832 370.05065 L 299.55558 370.05065 L 299.55558 366.51159 C 299.60358 366.43959 299.6801 366.35191 299.7841 366.24791 C 299.8881 366.14391 300.01119 366.03941 300.15519 365.93541 C 300.30719 365.83141 300.48253 365.74374 300.68253 365.67174 C 300.88253 365.59974 301.10641 365.56237 301.35441 365.56237 C 301.61841 365.56237 301.79943 365.6837 301.89543 365.9237 C 301.9994 366.1637 302.05168 366.53865 302.05168 367.05065 L 302.89152 367.03893 C 302.89152 366.67893 302.87469 366.35995 302.84269 366.07995 C 302.81069 365.79195 302.74729 365.54752 302.65128 365.34752 C 302.56328 365.14752 302.43452 364.99449 302.26652 364.89049 C 302.10652 364.78649 301.89203 364.73424 301.62003 364.73424 z M 307.15128 364.75963 C 306.73528 364.75963 306.3118 364.80253 305.8798 364.89049 C 305.4478 364.97849 305.05974 365.12409 304.71574 365.32409 L 305.01457 366.0194 C 305.27057 365.9154 305.56352 365.81462 305.89152 365.71862 C 306.21952 365.61462 306.56277 365.56237 306.92277 365.56237 C 307.18677 365.56237 307.40693 365.59612 307.58293 365.66002 C 307.7669 365.71602 307.90685 365.81485 308.00285 365.95885 C 308.10685 366.10285 308.17025 366.29874 308.19425 366.54674 C 308.22625 366.78674 308.22253 367.09085 308.18253 367.45885 C 307.59056 367.37085 307.05511 367.33915 306.57511 367.36315 C 306.10311 367.38715 305.69822 367.4711 305.36222 367.6151 C 305.02622 367.7591 304.7669 367.9681 304.58293 368.2401 C 304.40693 368.5121 304.31925 368.85163 304.31925 369.25963 C 304.31925 369.78763 304.49088 370.20368 304.83488 370.50768 C 305.17888 370.81168 305.64718 370.96276 306.23918 370.96276 C 306.54315 370.96276 306.80619 370.92366 307.03019 370.84362 C 307.25419 370.76362 307.44264 370.67027 307.59464 370.56627 C 307.75464 370.45427 307.88341 370.34234 307.97941 370.23034 C 308.07541 370.11834 308.14625 370.02695 308.19425 369.95495 L 308.2548 369.95495 L 308.36222 370.85534 L 309.95988 370.85534 L 309.95988 370.07604 L 309.15519 370.07604 C 309.10719 369.71604 309.08293 369.33541 309.08293 368.93541 C 309.09093 368.59141 309.10403 368.24816 309.12003 367.90416 C 309.13603 367.56016 309.14347 367.23551 309.14347 366.93151 C 309.14347 366.66751 309.11549 366.40626 309.05949 366.15026 C 309.01149 365.88626 308.91071 365.65495 308.75871 365.45495 C 308.61471 365.24695 308.41138 365.07904 308.14738 364.95104 C 307.89138 364.82304 307.55928 364.75963 307.15128 364.75963 z M 311.17082 364.85534 L 313.68839 370.84948 L 315.42277 370.84948 C 315.48227 370.64112 315.54231 370.42296 315.59855 370.24401 L 317.26652 364.85534 L 316.29582 364.85534 L 314.80753 369.93151 L 314.3505 369.93151 L 312.25089 364.85534 L 311.17082 364.85534 z M 307.03019 368.08385 C 307.38219 368.08385 307.76653 368.11925 308.18253 368.19127 L 308.18253 369.03112 C 308.13453 369.15112 308.06369 369.27988 307.96769 369.41588 C 307.87169 369.54388 307.75036 369.66326 307.60636 369.77526 C 307.46236 369.88726 307.29446 369.97865 307.10246 370.05065 C 306.91046 370.12265 306.70341 370.16002 306.47941 370.16002 C 306.05541 370.16002 305.7513 370.06292 305.5673 369.87096 C 305.3913 369.67096 305.30363 369.43965 305.30363 369.17565 C 305.30363 368.91965 305.37443 368.71065 305.51847 368.55065 C 305.66247 368.39065 305.86403 368.27499 306.12003 368.20299 C 306.37603 368.12299 306.67819 368.08385 307.03019 368.08385 z "
       transform="matrix(0.26458333,0,0,0.26458333,10.164002,-28.73206)"
       inkscape:export-filename="sunrayzU.png"
       inkscape:export-xdpi="3800.7305"
       inkscape:export-ydpi="3800.7305" />
    <text
       xml:space="preserve"
       transform="scale(0.26458333)"
       id="text290"
       style="font-size:9.33333px;font-family:sans-serif;-inkscape-font-specification:sans-serif;white-space:pre;shape-inside:url(#rect292);display:inline;fill:#ffffff;stroke:#fdbe00;stroke-width:1.71591;stroke-miterlimit:3.5;paint-order:stroke fill markers" />
    <g
       id="g2019"
       transform="translate(-4.8659986,3.6148981)"
       style="display:inline">
      <text
         xml:space="preserve"
         style="font-style:normal;font-variant:normal;font-weight:normal;font-stretch:normal;font-size:3.175px;font-family:'PT Mono';-inkscape-font-specification:'PT Mono';fill:#000000;fill-opacity:1;stroke:none;stroke-width:0.454001;stroke-miterlimit:3.5;paint-order:stroke fill markers"
         x="-101.02551"
         y="65.76403"
         id="text1270"
         transform="scale(-1,1)"><tspan
           sodipodi:role="line"
           id="tspan1268"
           style="font-size:3.175px;stroke-width:0.454"
           x="-101.02551"
           y="65.76403">z</tspan></text>
      <text
         xml:space="preserve"
         style="font-style:normal;font-variant:normal;font-weight:normal;font-stretch:normal;font-size:3.175px;font-family:'PT Mono';-inkscape-font-specification:'PT Mono';fill:#000000;fill-opacity:1;stroke:none;stroke-width:0.454001;stroke-miterlimit:3.5;paint-order:stroke fill markers"
         x="99.120506"
         y="65.76403"
         id="text2011"><tspan
           sodipodi:role="line"
           id="tspan2009"
           style="font-size:3.175px;stroke-width:0.454"
           x="99.120506"
           y="65.76403">z</tspan></text>
    </g>
    <g
       id="g2262"
       style="display:inline">
      <path
         id="text2134"
         style="font-style:normal;font-variant:normal;font-weight:normal;font-stretch:normal;font-size:3.175px;font-family:'PT Mono';-inkscape-font-specification:'PT Mono';display:none;fill:#000000;fill-opacity:1;stroke:none;stroke-width:0.279704;stroke-miterlimit:3.5;paint-order:stroke fill markers"
         d="m 93.960178,68.645422 -0.07678,0.170016 0.149498,0.331246 h -0.178157 v 0.241845 h 0.3576 v -0.184484 z" />
      <path
         id="path2254"
         style="font-style:normal;font-variant:normal;font-weight:normal;font-stretch:normal;font-size:3.175px;font-family:'PT Mono';-inkscape-font-specification:'PT Mono';display:inline;fill:#000000;fill-opacity:1;stroke:none;stroke-width:0.619865;stroke-miterlimit:3.5;paint-order:stroke fill markers"
         d="m 93.375179,69.146684 v 0.241845 h 0.836125 v -0.241845 z" />
    </g>
    <text
       xml:space="preserve"
       style="font-style:normal;font-variant:normal;font-weight:normal;font-stretch:normal;font-size:3.175px;font-family:'PT Mono';-inkscape-font-specification:'PT Mono';display:inline;fill:#000000;fill-opacity:1;stroke:none;stroke-width:0.454001;stroke-miterlimit:3.5;paint-order:stroke fill markers"
       x="93.146767"
       y="65.212097"
       id="text2316"><tspan
         sodipodi:role="line"
         id="tspan2314"
         style="fill:#000000;stroke-width:0.454"
         x="0"
         y="0" /></text>
    <path
       id="text2679"
       style="font-style:normal;font-variant:normal;font-weight:normal;font-stretch:normal;font-size:3.04084px;font-family:'PT Mono';-inkscape-font-specification:'PT Mono';display:inline;fill:#000000;fill-opacity:1;stroke:none;stroke-width:0.434816;stroke-miterlimit:3.5;paint-order:stroke fill markers"
       d="m 93.64642,69.380301 -0.252695,10e-7 -0.153996,0.527616 -0.215491,-0.452686 -0.214459,0.12144 0.363288,0.763779 0.175694,0.06046 z" />
    <path
       id="path2769"
       style="font-style:normal;font-variant:normal;font-weight:normal;font-stretch:normal;font-size:3.04084px;font-family:'PT Mono';-inkscape-font-specification:'PT Mono';display:inline;fill:#000000;fill-opacity:1;stroke:none;stroke-width:0.434816;stroke-miterlimit:3.5;paint-order:stroke fill markers"
       d="M 32.70377 -113.18857 L 33.983966 -113.18911 L 33.904909 -113.44082 L 32.703822 -113.44112 L 32.70377 -113.18857 z "
       transform="matrix(-0.29061883,0.99610079,-0.91263773,-0.31285254,0,0)" />
    <path
       id="text2828"
       style="font-style:normal;font-variant:normal;font-weight:normal;font-stretch:normal;font-size:2.46944px;font-family:'PT Mono';-inkscape-font-specification:'PT Mono';display:inline;fill:#ffbf00;fill-opacity:1;stroke:none;stroke-width:0.454001;stroke-miterlimit:3.5;paint-order:stroke fill markers"
       d="m 84.67205,68.557572 v 5.17e-4 c 0,0.361734 0.156983,0.633267 0.47129,0.814938 0.156751,0.09084 0.313504,0.136425 0.470255,0.136425 0.157555,0 0.314538,-0.04559 0.471289,-0.136425 0.314307,-0.181671 0.471806,-0.453204 0.471806,-0.814938 v -5.17e-4 h -0.141077 v 5.17e-4 c 0,0.307876 -0.133842,0.538641 -0.401526,0.692981 -0.132635,0.07717 -0.266248,0.115755 -0.400492,0.115755 -0.13344,0 -0.266306,-0.03859 -0.398942,-0.115755 -0.267683,-0.15434 -0.401526,-0.385105 -0.401526,-0.692981 v -5.17e-4 z m 0.330213,0 v 5.17e-4 c 0,0.235529 0.102262,0.411804 0.306441,0.529167 0.101286,0.05949 0.202802,0.0894 0.304891,0.0894 0.102893,0 0.205156,-0.02991 0.306441,-0.0894 0.204179,-0.117363 0.305925,-0.293638 0.305925,-0.529167 v -5.17e-4 z" />
    <path
       id="rect558"
       style="fill:#ffbf00;fill-opacity:1;stroke-width:0.129138;stroke-miterlimit:3.5;paint-order:stroke fill markers"
       d="M 85.002563 67.705945 L 85.002563 68.559639 L 86.225745 68.559639 L 86.225745 67.705945 L 85.002563 67.705945 z " />
    <path
       id="rect994"
       style="fill:#ffbf00;fill-opacity:1;stroke-width:0.150313;stroke-miterlimit:3.5;paint-order:stroke fill markers"
       d="M 84.671834 67.705945 L 84.671834 68.559123 L 84.812911 68.559123 L 84.812911 67.705945 L 84.671834 67.705945 z " />
    <path
       id="rect994-6"
       style="fill:#ffbf00;fill-opacity:1;stroke-width:0.150313;stroke-miterlimit:3.5;paint-order:stroke fill markers"
       d="M 86.41488 67.705945 L 86.41488 68.558606 L 86.555957 68.558606 L 86.555957 67.705945 L 86.41488 67.705945 z " />
  </g>
</svg>
